<svg width="12" height="12" viewBox="0 0 12 12" fill="none" xmlns="http://www.w3.org/2000/svg">
  <path d="M7.90439 7.84934C8.16636 7.93667 8.44952 7.79509 8.53684 7.53311C8.62417 7.27114 8.48259 6.98798 8.22061 6.90066L8.0625 7.375L7.90439 7.84934ZM6 6.6875H5.5C5.5 6.90272 5.63771 7.09378 5.84189 7.16184L6 6.6875ZM6.5 3.81275C6.5 3.53661 6.27614 3.31275 6 3.31275C5.72386 3.31275 5.5 3.53661 5.5 3.81275H6H6.5ZM8.0625 7.375L8.22061 6.90066L6.15811 6.21316L6 6.6875L5.84189 7.16184L7.90439 7.84934L8.0625 7.375ZM6 6.6875H6.5V3.81275H6H5.5V6.6875H6ZM11.5 6H11C11 8.76142 8.76142 11 6 11V11.5V12C9.31371 12 12 9.31371 12 6H11.5ZM6 11.5V11C3.23858 11 1 8.76142 1 6H0.5H0C0 9.31371 2.68629 12 6 12V11.5ZM0.5 6H1C1 3.23858 3.23858 1 6 1V0.5V0C2.68629 0 0 2.68629 0 6H0.5ZM6 0.5V1C8.76142 1 11 3.23858 11 6H11.5H12C12 2.68629 9.31371 0 6 0V0.5Z" fill="#1E1E1E" fill-opacity="0.6"/>
</svg>
