<svg width="132" height="85" viewBox="0 0 132 85" fill="none" xmlns="http://www.w3.org/2000/svg">
<path d="M39.3985 62.4325V46.8565H44.8945C46.6465 46.8565 48.0105 47.2885 48.9865 48.1525C49.9705 49.0165 50.4625 50.2405 50.4625 51.8245C50.4625 53.3925 49.9705 54.6085 48.9865 55.4725C48.0105 56.3365 46.6465 56.7685 44.8945 56.7685H42.2545V62.4325H39.3985ZM42.2545 54.2965H44.8945C45.7745 54.2965 46.4385 54.0645 46.8865 53.6005C47.3345 53.1365 47.5585 52.5445 47.5585 51.8245C47.5585 51.0885 47.3345 50.4845 46.8865 50.0125C46.4385 49.5405 45.7745 49.3045 44.8945 49.3045H42.2545V54.2965ZM51.4724 62.4325V46.8565H57.2324C59.0964 46.8565 60.5244 47.2925 61.5164 48.1645C62.5164 49.0365 63.0164 50.1925 63.0164 51.6325C63.0164 53.0485 62.5164 54.1925 61.5164 55.0645C60.5244 55.9285 59.0964 56.3605 57.2324 56.3605H54.3044V62.4325H51.4724ZM59.8964 62.4325L55.7684 55.1365H58.7924L63.5924 62.4325H59.8964ZM54.3044 54.4645H56.9444C57.9844 54.4645 58.7724 54.2285 59.3084 53.7565C59.8444 53.2765 60.1124 52.6565 60.1124 51.8965C60.1124 51.1205 59.8684 50.4965 59.3804 50.0245C58.8924 49.5445 58.1764 49.3045 57.2324 49.3045H54.3044V54.4645ZM70.9497 62.7685C69.5657 62.7685 68.3417 62.4645 67.2777 61.8565C66.2217 61.2485 65.3937 60.3405 64.7937 59.1325C64.1937 57.9245 63.8937 56.4245 63.8937 54.6325C63.8937 52.8085 64.1937 51.3005 64.7937 50.1085C65.3937 48.9085 66.2217 48.0165 67.2777 47.4325C68.3417 46.8405 69.5657 46.5445 70.9497 46.5445C72.3417 46.5445 73.5697 46.8485 74.6337 47.4565C75.6977 48.0565 76.5297 48.9565 77.1297 50.1565C77.7297 51.3565 78.0297 52.8485 78.0297 54.6325C78.0297 56.4485 77.7297 57.9605 77.1297 59.1685C76.5297 60.3765 75.6977 61.2805 74.6337 61.8805C73.5697 62.4725 72.3417 62.7685 70.9497 62.7685ZM70.9497 60.2005C72.2217 60.2005 73.2297 59.7205 73.9737 58.7605C74.7257 57.8005 75.1017 56.4165 75.1017 54.6085C75.1017 52.8645 74.7257 51.5085 73.9737 50.5405C73.2297 49.5725 72.2217 49.0885 70.9497 49.0885C69.7017 49.0885 68.7017 49.5765 67.9497 50.5525C67.1977 51.5205 66.8217 52.8805 66.8217 54.6325C66.8217 56.4325 67.1977 57.8125 67.9497 58.7725C68.7017 59.7245 69.7017 60.2005 70.9497 60.2005ZM77.6125 61.7845V58.9525C78.2525 59.3205 78.8765 59.5885 79.4845 59.7565C80.1005 59.9245 80.6685 60.0085 81.1885 60.0085C81.8765 60.0085 82.3765 59.8085 82.6885 59.4085C83.0005 59.0085 83.1565 58.4005 83.1565 57.5845V46.8565H86.0125V57.5845C86.0125 58.8405 85.8165 59.8485 85.4245 60.6085C85.0325 61.3685 84.4925 61.9205 83.8045 62.2645C83.1165 62.6005 82.3245 62.7685 81.4285 62.7685C80.7245 62.7685 80.0525 62.6725 79.4125 62.4805C78.7725 62.2965 78.1725 62.0645 77.6125 61.7845ZM88.1572 62.4325V46.8565H98.1652V49.3045H90.9892V53.4085H97.7332V55.8565H90.9892V59.9605H98.1652V62.4325H88.1572ZM106.011 62.7685C104.643 62.7685 103.451 62.4445 102.435 61.7965C101.427 61.1405 100.643 60.2045 100.083 58.9885C99.5231 57.7725 99.2431 56.3125 99.2431 54.6085C99.2431 52.8485 99.5311 51.3725 100.107 50.1805C100.691 48.9805 101.491 48.0765 102.507 47.4685C103.531 46.8525 104.699 46.5445 106.011 46.5445C107.827 46.5445 109.243 46.9845 110.259 47.8645C111.283 48.7445 111.939 49.8885 112.227 51.2965L109.203 51.8485C108.955 51.0325 108.559 50.3725 108.015 49.8685C107.471 49.3645 106.803 49.1125 106.011 49.1125C105.315 49.1125 104.687 49.3165 104.127 49.7245C103.567 50.1245 103.119 50.7325 102.783 51.5485C102.455 52.3645 102.291 53.3845 102.291 54.6085C102.291 55.7605 102.435 56.7525 102.723 57.5845C103.019 58.4165 103.443 59.0565 103.995 59.5045C104.547 59.9525 105.219 60.1765 106.011 60.1765C107.027 60.1765 107.811 59.9085 108.363 59.3725C108.923 58.8285 109.203 58.1365 109.203 57.2965H112.227C112.227 58.4565 111.975 59.4445 111.471 60.2605C110.975 61.0685 110.263 61.6885 109.335 62.1205C108.407 62.5525 107.299 62.7685 106.011 62.7685ZM111.55 49.3045V46.8565H124.03V49.3045H118.57L119.206 48.6565V62.4325H116.374V48.6565L117.01 49.3045H111.55Z" fill="#F1642E"/>
<path d="M37.3825 29.3045V26.8565H49.8625V29.3045H44.4025L45.0385 28.6565V42.4325H42.2065V28.6565L42.8425 29.3045H37.3825ZM56.2525 42.7685C54.8685 42.7685 53.6445 42.4645 52.5805 41.8565C51.5245 41.2485 50.6965 40.3405 50.0965 39.1325C49.4965 37.9245 49.1965 36.4245 49.1965 34.6325C49.1965 32.8085 49.4965 31.3005 50.0965 30.1085C50.6965 28.9085 51.5245 28.0165 52.5805 27.4325C53.6445 26.8405 54.8685 26.5445 56.2525 26.5445C57.6445 26.5445 58.8725 26.8485 59.9365 27.4565C61.0005 28.0565 61.8325 28.9565 62.4325 30.1565C63.0325 31.3565 63.3325 32.8485 63.3325 34.6325C63.3325 36.4485 63.0325 37.9605 62.4325 39.1685C61.8325 40.3765 61.0005 41.2805 59.9365 41.8805C58.8725 42.4725 57.6445 42.7685 56.2525 42.7685ZM56.2525 40.2005C57.5245 40.2005 58.5325 39.7205 59.2765 38.7605C60.0285 37.8005 60.4045 36.4165 60.4045 34.6085C60.4045 32.8645 60.0285 31.5085 59.2765 30.5405C58.5325 29.5725 57.5245 29.0885 56.2525 29.0885C55.0045 29.0885 54.0045 29.5765 53.2525 30.5525C52.5005 31.5205 52.1245 32.8805 52.1245 34.6325C52.1245 36.4325 52.5005 37.8125 53.2525 38.7725C54.0045 39.7245 55.0045 40.2005 56.2525 40.2005ZM64.5233 26.8565H67.3553V36.5525C67.3553 37.8325 67.6793 38.7565 68.3273 39.3245C68.9833 39.8925 69.8193 40.1765 70.8353 40.1765C71.8593 40.1765 72.6953 39.8925 73.3433 39.3245C73.9913 38.7565 74.3153 37.8325 74.3153 36.5525V26.8565H77.1473V36.5525C77.1473 37.8645 76.8953 38.9845 76.3913 39.9125C75.8873 40.8405 75.1633 41.5485 74.2193 42.0365C73.2833 42.5245 72.1553 42.7685 70.8353 42.7685C69.5153 42.7685 68.3833 42.5245 67.4393 42.0365C66.5033 41.5485 65.7833 40.8405 65.2793 39.9125C64.7753 38.9845 64.5233 37.8645 64.5233 36.5525V26.8565ZM79.4137 42.4325V26.8565H85.1737C87.0377 26.8565 88.4657 27.2925 89.4577 28.1645C90.4577 29.0365 90.9577 30.1925 90.9577 31.6325C90.9577 33.0485 90.4577 34.1925 89.4577 35.0645C88.4657 35.9285 87.0377 36.3605 85.1737 36.3605H82.2457V42.4325H79.4137ZM87.8377 42.4325L83.7097 35.1365H86.7337L91.5337 42.4325H87.8377ZM82.2457 34.4645H84.8857C85.9257 34.4645 86.7137 34.2285 87.2497 33.7565C87.7857 33.2765 88.0537 32.6565 88.0537 31.8965C88.0537 31.1205 87.8097 30.4965 87.3217 30.0245C86.8337 29.5445 86.1177 29.3045 85.1737 29.3045H82.2457V34.4645ZM92.939 42.4325V26.8565H95.771V42.4325H92.939ZM103.755 42.7685C102.675 42.7685 101.679 42.5805 100.767 42.2045C99.8635 41.8285 99.1275 41.2565 98.5595 40.4885C97.9995 39.7205 97.6995 38.7445 97.6595 37.5605H100.443C100.443 38.1605 100.591 38.6525 100.887 39.0365C101.183 39.4205 101.579 39.7085 102.075 39.9005C102.579 40.0845 103.131 40.1765 103.731 40.1765C104.307 40.1765 104.819 40.1005 105.267 39.9485C105.723 39.7965 106.079 39.5805 106.335 39.3005C106.599 39.0125 106.731 38.6725 106.731 38.2805C106.731 37.7605 106.571 37.3525 106.251 37.0565C105.939 36.7605 105.435 36.4885 104.739 36.2405L101.667 35.0165C100.467 34.5445 99.5475 33.9965 98.9075 33.3725C98.2675 32.7485 97.9475 31.8885 97.9475 30.7925C97.9475 29.5285 98.4475 28.5045 99.4475 27.7205C100.447 26.9365 101.843 26.5445 103.635 26.5445C105.379 26.5445 106.727 26.9525 107.679 27.7685C108.631 28.5765 109.171 29.7045 109.299 31.1525H106.515C106.411 30.5365 106.131 30.0445 105.675 29.6765C105.219 29.3005 104.539 29.1125 103.635 29.1125C102.835 29.1125 102.203 29.2805 101.739 29.6165C101.275 29.9445 101.043 30.3605 101.043 30.8645C101.043 31.2965 101.187 31.6405 101.475 31.8965C101.771 32.1445 102.227 32.3845 102.843 32.6165L106.251 33.9365C107.403 34.3845 108.287 34.9485 108.903 35.6285C109.519 36.3085 109.827 37.1605 109.827 38.1845C109.827 39.1205 109.591 39.9325 109.119 40.6205C108.647 41.3005 107.959 41.8285 107.055 42.2045C106.151 42.5805 105.051 42.7685 103.755 42.7685ZM111.716 26.8565H115.772L120.164 36.3845H119.924L124.316 26.8565H128.228V42.4325H125.372V30.1205H125.804L120.956 40.7285H119.108L114.284 30.1685H114.548V42.4325H111.716V26.8565Z" fill="#F1642E"/>
<path d="M31.6602 73.3236L21.3229 82.4325L10.5879 79.6602L8.59997 61.4424L4.62407 55.1058L7.00961 48.7691L2.23853 24.6107L7.00961 21.8384L5.81684 13.5216L10.5879 7.58101L13.3711 10.7493L18.5397 2.4325L27.2867 5.60081L22.9132 13.5216L31.6602 15.5018L35.2385 38.0761L32.853 47.581L29.2747 48.7691L27.2867 67.383L31.6602 73.3236Z" stroke="#1E1E1E" stroke-width="4"/>
</svg>
