<svg width="19" height="19" viewBox="0 0 19 19" fill="none" xmlns="http://www.w3.org/2000/svg">
  <path d="M9.28049 18.5C4.43116 18.5 0.5 14.4706 0.5 9.5C0.5 4.52944 4.43116 0.5 9.28049 0.5C12.9654 0.5 16.1202 2.82669 17.4227 6.125M1.59756 12.875H4.15854C5.16881 12.875 5.9878 12.0355 5.9878 11V8.5625C5.9878 7.52697 6.8068 6.6875 7.81707 6.6875H9.64634C10.6566 6.6875 11.4756 5.84804 11.4756 4.8125V1.625M14.9878 13.1V13.0323M18.5 13.0217C18.5 15.3696 14.9878 18.5 14.9878 18.5C14.9878 18.5 11.4756 15.3696 11.4756 13.0217C11.4756 11.0767 13.0481 9.5 14.9878 9.5C16.9275 9.5 18.5 11.0767 18.5 13.0217Z" stroke="white" stroke-linecap="round" stroke-linejoin="round"/>
</svg>
