<svg width="11" height="10" viewBox="0 0 11 10" fill="none" xmlns="http://www.w3.org/2000/svg">
  <path d="M8.75424 6.22064C8.61181 6.35273 8.54636 6.54377 8.57881 6.73113L9.0677 9.32043C9.10894 9.53989 9.01215 9.76198 8.82023 9.88881C8.63215 10.0204 8.38194 10.0362 8.17681 9.93092L5.74118 8.71521C5.65649 8.67205 5.56245 8.6489 5.46622 8.64627H5.31719C5.26549 8.65363 5.2149 8.66942 5.16871 8.69363L2.73252 9.91513C2.61209 9.97302 2.47571 9.99354 2.34208 9.97302C2.01652 9.91408 1.7993 9.61725 1.85264 9.30412L2.34208 6.71481C2.37452 6.52588 2.30908 6.33379 2.16665 6.19959L0.180858 4.3576C0.0147798 4.2034 -0.0429627 3.97184 0.0329274 3.76291C0.106618 3.5545 0.294693 3.4024 0.521814 3.3682L3.25496 2.98875C3.46283 2.96822 3.64541 2.84718 3.73889 2.66824L4.94324 0.305243C4.97183 0.252615 5.00868 0.204197 5.05322 0.163147L5.10271 0.126307C5.12856 0.0989408 5.15826 0.0763107 5.19125 0.0578909L5.2512 0.0368396L5.34468 0H5.5762C5.78298 0.0205249 5.965 0.138938 6.06014 0.315768L7.28043 2.66824C7.36842 2.84034 7.53945 2.9598 7.73687 2.98875L10.47 3.3682C10.701 3.39977 10.894 3.55239 10.9704 3.76291C11.0425 3.97395 10.9803 4.20551 10.811 4.3576L8.75424 6.22064Z" fill="#F1642E"/>
</svg>
