<svg width="121" height="32" viewBox="0 0 121 32" fill="none" xmlns="http://www.w3.org/2000/svg">
<path d="M71.0227 14.6518H68.8381L69.9228 11.343L71.0227 14.6518Z" fill="#919191"/>
<path d="M81.1921 7.51099V9.82699H84.3289V19.3774H87.2134V9.82699H90.3501V7.51099H81.1929H81.1921Z" fill="#919191"/>
<path d="M98.7506 14.5103C98.7506 13.5631 98.551 12.7351 98.1527 12.0255C97.7529 11.3159 97.199 10.7679 96.491 10.3855C95.783 10.0031 94.9737 9.8103 94.063 9.8103C93.1523 9.8103 92.3039 10.0079 91.5839 10.4023C90.864 10.7967 90.3053 11.3599 89.907 12.0919C89.5071 12.8239 89.3076 13.6807 89.3076 14.6623C89.3076 15.6439 89.5103 16.4991 89.9158 17.2311C90.3197 17.9631 90.8816 18.5263 91.6015 18.9223C92.3198 19.3167 93.1427 19.5127 94.0638 19.5127C94.8284 19.5127 95.5196 19.3727 96.1374 19.0911C96.7552 18.8095 97.27 18.4207 97.6802 17.9239C98.0905 17.4287 98.3746 16.8711 98.5335 16.2511H95.463C95.182 16.8583 94.6816 17.1623 93.9624 17.1623C93.4788 17.1623 93.0701 17.0087 92.7397 16.6983C92.4076 16.3895 92.2185 15.9407 92.1746 15.3551H98.7011C98.7354 15.0615 98.7506 14.7799 98.7506 14.5103ZM92.1913 13.7495C92.2696 13.2303 92.4739 12.8311 92.8059 12.5495C93.1379 12.2679 93.545 12.1263 94.0287 12.1263C94.5124 12.1263 94.9569 12.2727 95.2938 12.5663C95.6306 12.8583 95.7998 13.2527 95.7998 13.7487H92.1913V13.7495Z" fill="#919191"/>
<path d="M103.791 17.0447C103.263 17.0447 102.841 16.8399 102.527 16.4287C102.212 16.0175 102.054 15.4287 102.054 14.6623C102.054 13.8959 102.212 13.3071 102.527 12.8959C102.841 12.4847 103.263 12.2783 103.791 12.2783C104.533 12.2783 105.034 12.6383 105.293 13.3607H108.363C108.115 12.2343 107.596 11.3607 106.802 10.7407C106.011 10.1215 105.025 9.8103 103.843 9.8103C102.922 9.8103 102.103 10.0079 101.389 10.4023C100.676 10.7967 100.119 11.3599 99.7203 12.0919C99.3204 12.8239 99.1208 13.6807 99.1208 14.6623C99.1208 15.6439 99.3204 16.4991 99.7203 17.2311C100.119 17.9631 100.676 18.5263 101.389 18.9223C102.103 19.3167 102.922 19.5127 103.843 19.5127C105.013 19.5127 105.995 19.1967 106.795 18.5671C107.592 17.9359 108.114 17.0687 108.363 15.9623H105.293C105.034 16.6839 104.534 17.0447 103.791 17.0447Z" fill="#919191"/>
<path d="M117.512 10.9174C116.858 10.2022 115.993 9.84378 114.913 9.84378C114.283 9.84378 113.716 9.96858 113.211 10.2158C112.705 10.463 112.305 10.7958 112.013 11.2126V6.86938H109.129V19.3782H112.013V14.2566C112.013 13.6254 112.175 13.135 112.502 12.7854C112.827 12.4374 113.267 12.2614 113.816 12.2614C114.366 12.2614 114.805 12.4374 115.133 12.7854C115.457 13.135 115.621 13.6254 115.621 14.2566V19.3782H118.489V13.867C118.489 12.6158 118.162 11.6326 117.511 10.9174H117.512Z" fill="#919191"/>
<path d="M30.4095 17.147V7.51099H27.5266V19.3774H34.188V17.147H30.4095Z" fill="#919191"/>
<path d="M41.0203 9.94458V15.0662C41.0203 15.6974 40.8566 16.1878 40.5318 16.5374C40.2045 16.887 39.7608 17.0614 39.1989 17.0614C38.637 17.0614 38.2092 16.887 37.8843 16.5374C37.5571 16.1878 37.3958 15.6974 37.3958 15.0662V9.94458H34.5281V15.4558C34.5281 16.2782 34.6797 16.9934 34.983 17.603C35.2879 18.2126 35.7133 18.6766 36.2649 18.9974C36.8148 19.3182 37.4517 19.479 38.17 19.479C38.7782 19.479 39.3314 19.3526 39.8318 19.0998C40.3322 18.8454 40.7273 18.511 41.0203 18.0926V19.3774H43.9048V9.94458H41.0203Z" fill="#919191"/>
<path d="M52.1441 15.0752C51.8121 14.6864 51.4274 14.4064 50.99 14.2304C50.551 14.056 49.9835 13.8792 49.2852 13.6976C48.6794 13.5624 48.2308 13.428 47.9451 13.2912C47.6569 13.156 47.5141 12.9536 47.5141 12.684C47.5141 12.4584 47.6043 12.2816 47.7846 12.1512C47.9634 12.0216 48.222 11.9568 48.5596 11.9568C48.9531 11.9568 49.2716 12.052 49.5134 12.2432C49.7553 12.436 49.8981 12.6936 49.9428 13.0216H52.6079C52.5073 12.052 52.1154 11.2736 51.4362 10.6888C50.7554 10.1032 49.8255 9.80957 48.645 9.80957C47.8461 9.80957 47.1589 9.93917 46.5794 10.1984C45.9992 10.4576 45.561 10.8096 45.2633 11.2552C44.9656 11.7008 44.8171 12.1936 44.8171 12.7352C44.8171 13.3768 44.9791 13.8872 45.3056 14.2648C45.6304 14.6416 46.0191 14.9184 46.4685 15.0928C46.9178 15.2688 47.4797 15.4344 48.1558 15.5912C48.7839 15.7496 49.2405 15.8936 49.5214 16.0232C49.8024 16.1528 49.942 16.3528 49.942 16.6224C49.942 16.8496 49.8447 17.032 49.6475 17.172C49.452 17.3136 49.1726 17.384 48.8135 17.384C48.42 17.384 48.0879 17.2832 47.819 17.08C47.5484 16.8768 47.3967 16.612 47.3624 16.2848H44.5122C44.5585 16.8944 44.766 17.444 45.1372 17.9336C45.5083 18.4232 46.0143 18.8112 46.6545 19.0928C47.2946 19.3744 48.0265 19.5144 48.8478 19.5144C49.6124 19.5144 50.2829 19.3896 50.8623 19.1424C51.441 18.8952 51.8855 18.5536 52.1952 18.12C52.5033 17.6864 52.6582 17.1936 52.6582 16.64C52.6462 15.988 52.4762 15.4656 52.1441 15.0768V15.0752Z" fill="#919191"/>
<path d="M61.6589 10.9174C61.0068 10.2022 60.1416 9.84378 59.0625 9.84378C58.4328 9.84378 57.8653 9.96858 57.3601 10.2158C56.8548 10.463 56.4542 10.7958 56.1628 11.2126V6.86938H53.2783V19.3782H56.1628V14.2566C56.1628 13.6254 56.3249 13.135 56.6513 12.7854C56.9762 12.4374 57.4159 12.2614 57.9659 12.2614C58.5158 12.2614 58.9548 12.4374 59.282 12.7854C59.6069 13.135 59.7705 13.6254 59.7705 14.2566V19.3782H62.6383V13.867C62.6383 12.6158 62.311 11.6326 61.6589 10.9174Z" fill="#919191"/>
<path d="M30.0057 23V23.5088H29.17V26.144H28.5403V23.5088H27.7046V23H30.0057Z" fill="#919191"/>
<path d="M32.3522 26.1441L31.6602 24.9185H31.3633V26.1441H30.7344V22.9993H31.9117C32.1543 22.9993 32.361 23.0425 32.5318 23.1273C32.7026 23.2129 32.8303 23.3289 32.9157 23.4745C33.0011 23.6201 33.0434 23.7833 33.0434 23.9633C33.0434 24.1705 32.9836 24.3577 32.8638 24.5241C32.7441 24.6905 32.5653 24.8057 32.3291 24.8689L33.0793 26.1441H32.3514H32.3522ZM31.3633 24.4457H31.8893C32.0601 24.4457 32.187 24.4041 32.2716 24.3217C32.3554 24.2393 32.3977 24.1241 32.3977 23.9769C32.3977 23.8297 32.3554 23.7209 32.2716 23.6409C32.1878 23.5617 32.0601 23.5217 31.8893 23.5217H31.3633V24.4449V24.4457Z" fill="#919191"/>
<path d="M35.8082 25.5447H34.5583L34.3515 26.1439H33.6907L34.8185 22.9951H35.5512L36.679 26.1439H36.0141L35.8074 25.5447H35.8082ZM35.6374 25.0407L35.1832 23.7255L34.7291 25.0407H35.6374Z" fill="#919191"/>
<path d="M40.0561 26.1439H39.4272L38.0025 23.9863V26.1439H37.3735V22.9951H38.0025L39.4272 25.1575V22.9951H40.0561V26.1439Z" fill="#919191"/>
<path d="M41.4376 26.0631C41.262 25.9879 41.1239 25.8799 41.0217 25.7391C40.9196 25.5983 40.8669 25.4311 40.8645 25.2391H41.5389C41.5477 25.3679 41.594 25.4703 41.6762 25.5455C41.7584 25.6207 41.8718 25.6583 42.0154 25.6583C42.1591 25.6583 42.278 25.6231 42.3618 25.5519C42.4456 25.4815 42.4879 25.3887 42.4879 25.2751C42.4879 25.1823 42.4592 25.1055 42.4025 25.0455C42.3459 24.9855 42.274 24.9383 42.1886 24.9031C42.1032 24.8687 41.9859 24.8303 41.8359 24.7879C41.6323 24.7279 41.4663 24.6687 41.3394 24.6095C41.2117 24.5511 41.1024 24.4623 41.0114 24.3439C40.9196 24.2255 40.8741 24.0671 40.8741 23.8687C40.8741 23.6823 40.9204 23.5207 41.013 23.3823C41.1055 23.2439 41.2364 23.1383 41.4041 23.0647C41.5717 22.9911 41.7632 22.9543 41.9795 22.9543C42.3028 22.9543 42.5662 23.0335 42.7681 23.1911C42.97 23.3487 43.0818 23.5687 43.1025 23.8511H42.4105C42.4041 23.7431 42.3586 23.6535 42.2732 23.5831C42.1878 23.5127 42.0745 23.4775 41.934 23.4775C41.8111 23.4775 41.7129 23.5087 41.6395 23.5719C41.5661 23.6351 41.5294 23.7263 41.5294 23.8471C41.5294 23.9311 41.5573 24.0007 41.6124 24.0567C41.6674 24.1127 41.7369 24.1575 41.8191 24.1919C41.9013 24.2263 42.0178 24.2663 42.1671 24.3111C42.3706 24.3711 42.5374 24.4311 42.6659 24.4911C42.7944 24.5511 42.9054 24.6415 42.9988 24.7615C43.0913 24.8815 43.1376 25.0391 43.1376 25.2343C43.1376 25.4023 43.0945 25.5583 43.0075 25.7031C42.9205 25.8471 42.7928 25.9623 42.6252 26.0479C42.4576 26.1335 42.2581 26.1759 42.0274 26.1759C41.8087 26.1759 41.6116 26.1383 41.4368 26.0631H41.4376Z" fill="#919191"/>
<path d="M45.8898 23.0001V23.5089H44.5816V24.3153H45.5841V24.8153H44.5816V26.1441H43.9526V22.9993H45.8898V23.0001Z" fill="#919191"/>
<path d="M47.2514 25.9687C47.0056 25.8303 46.8108 25.6391 46.6672 25.3943C46.5235 25.1495 46.4517 24.8727 46.4517 24.5631C46.4517 24.2535 46.5235 23.9815 46.6672 23.7367C46.8108 23.4919 47.0056 23.3007 47.2514 23.1623C47.4972 23.0239 47.767 22.9551 48.0607 22.9551C48.3545 22.9551 48.6274 23.0239 48.8717 23.1623C49.1159 23.3007 49.309 23.4919 49.4511 23.7367C49.5932 23.9815 49.665 24.2567 49.665 24.5631C49.665 24.8695 49.594 25.1495 49.4511 25.3943C49.309 25.6391 49.1151 25.8303 48.8693 25.9687C48.6234 26.1071 48.3537 26.1759 48.0599 26.1759C47.7662 26.1759 47.4964 26.1071 47.2506 25.9687H47.2514ZM48.5596 25.4839C48.7033 25.3983 48.8158 25.2759 48.8964 25.1167C48.977 24.9575 49.0177 24.7727 49.0177 24.5623C49.0177 24.3519 48.977 24.1679 48.8964 24.0103C48.8158 23.8527 48.7033 23.7319 48.5596 23.6479C48.4159 23.5639 48.2491 23.5215 48.0607 23.5215C47.8724 23.5215 47.7048 23.5639 47.5595 23.6479C47.4142 23.7319 47.3009 23.8527 47.2203 24.0103C47.1397 24.1679 47.099 24.3519 47.099 24.5623C47.099 24.7727 47.1397 24.9575 47.2203 25.1167C47.3009 25.2759 47.4142 25.3983 47.5595 25.4839C47.7048 25.5695 47.8716 25.6119 48.0607 25.6119C48.2499 25.6119 48.4159 25.5687 48.5596 25.4839Z" fill="#919191"/>
<path d="M52.0202 26.1441L51.3282 24.9185H51.0313V26.1441H50.4023V22.9993H51.5796C51.8223 22.9993 52.029 23.0425 52.1998 23.1273C52.3706 23.2129 52.4983 23.3289 52.5837 23.4745C52.6691 23.6201 52.7114 23.7833 52.7114 23.9633C52.7114 24.1705 52.6515 24.3577 52.5318 24.5241C52.4121 24.6905 52.2333 24.8057 51.9971 24.8689L52.7473 26.1441H52.0194H52.0202ZM51.0313 24.4457H51.5573C51.7281 24.4457 51.855 24.4041 51.9396 24.3217C52.0234 24.2393 52.0657 24.1241 52.0657 23.9769C52.0657 23.8297 52.0234 23.7209 51.9396 23.6409C51.8558 23.5617 51.7281 23.5217 51.5573 23.5217H51.0313V24.4449V24.4457Z" fill="#919191"/>
<path d="M56.9736 23V26.1448H56.3439V24.0992L55.5034 26.1448H55.0269L54.1817 24.0992V26.1448H53.5527V23H54.2671L55.2648 25.3384L56.2625 23H56.9728H56.9736Z" fill="#919191"/>
<path d="M58.4925 23V26.1448H57.8635V23H58.4925Z" fill="#919191"/>
<path d="M62.0659 26.1439H61.4369L60.0122 23.9863V26.1439H59.3833V22.9951H60.0122L61.4369 25.1575V22.9951H62.0659V26.1439Z" fill="#919191"/>
<path d="M65.1395 23.9455C65.0677 23.8135 64.9687 23.7127 64.8426 23.6439C64.7165 23.5751 64.5704 23.5407 64.402 23.5407C64.216 23.5407 64.0516 23.5831 63.9071 23.6671C63.7635 23.7511 63.6509 23.8711 63.5703 24.0279C63.4897 24.1839 63.449 24.3639 63.449 24.5687C63.449 24.7735 63.4905 24.9623 63.5727 25.1183C63.6549 25.2743 63.7699 25.3943 63.9167 25.4783C64.0636 25.5623 64.2344 25.6047 64.4291 25.6047C64.6686 25.6047 64.8649 25.5407 65.0182 25.4135C65.1706 25.2863 65.2712 25.1079 65.3191 24.8799H64.2408V24.3975H65.94V24.9471C65.8977 25.1663 65.8083 25.3695 65.6703 25.5551C65.5322 25.7407 65.355 25.8911 65.1379 26.0031C64.9208 26.1159 64.6774 26.1719 64.4076 26.1719C64.1051 26.1719 63.8313 26.1039 63.5871 25.9671C63.3428 25.8303 63.1513 25.6407 63.0116 25.3975C62.8719 25.1543 62.8025 24.8783 62.8025 24.5687C62.8025 24.2591 62.8719 23.9823 63.0116 23.7375C63.1513 23.4927 63.3428 23.3023 63.5871 23.1655C63.8313 23.0287 64.1027 22.9607 64.4028 22.9607C64.7564 22.9607 65.0637 23.0471 65.3239 23.2199C65.5841 23.3927 65.7644 23.6351 65.8634 23.9471H65.1395V23.9455Z" fill="#919191"/>
<path d="M69.9828 23.1937C70.2334 23.3225 70.4265 23.5065 70.5622 23.7457C70.6987 23.9849 70.7666 24.2617 70.7666 24.5769C70.7666 24.8921 70.6987 25.1681 70.5622 25.4033C70.4257 25.6393 70.2326 25.8217 69.9828 25.9505C69.7329 26.0793 69.4424 26.1441 69.1128 26.1441H68.0161V22.9993H69.1128C69.4424 22.9993 69.7321 23.0641 69.9828 23.1929V23.1937ZM69.8551 25.3377C70.0346 25.1577 70.1248 24.9041 70.1248 24.5761C70.1248 24.2481 70.0346 23.9929 69.8551 23.8081C69.6755 23.6233 69.4209 23.5313 69.0912 23.5313H68.6459V25.6081H69.0912C69.4209 25.6081 69.6755 25.5177 69.8551 25.3377Z" fill="#919191"/>
<path d="M73.4324 25.5447H72.1825L71.9758 26.1439H71.3149L72.4427 22.9951H73.1754L74.3032 26.1439H73.6384L73.4316 25.5447H73.4324ZM73.2616 25.0407L72.8075 23.7255L72.3533 25.0407H73.2616Z" fill="#919191"/>
<path d="M77.1319 23V23.5088H76.2962V26.144H75.6665V23.5088H74.8308V23H77.1319Z" fill="#919191"/>
<path d="M79.7833 25.5447H78.5334L78.3266 26.1439H77.6658L78.7936 22.9951H79.5263L80.6541 26.1439H79.9892L79.7825 25.5447H79.7833ZM79.6125 25.0407L79.1583 23.7255L78.7042 25.0407H79.6125Z" fill="#919191"/>
<path d="M83.316 23V26.1448H82.687V23H83.316Z" fill="#919191"/>
<path d="M86.8891 26.1439H86.2602L84.8355 23.9863V26.1439H84.2065V22.9951H84.8355L86.2602 25.1575V22.9951H86.8891V26.1439Z" fill="#919191"/>
<path d="M89.9141 23V23.5088H89.0785V26.144H88.4487V23.5088H87.613V23H89.9141Z" fill="#919191"/>
<path d="M91.2895 25.9687C91.0437 25.8303 90.8489 25.6391 90.7052 25.3943C90.5616 25.1495 90.4897 24.8727 90.4897 24.5631C90.4897 24.2535 90.5616 23.9815 90.7052 23.7367C90.8489 23.4919 91.0437 23.3007 91.2895 23.1623C91.5353 23.0239 91.8051 22.9551 92.0988 22.9551C92.3925 22.9551 92.6655 23.0239 92.9098 23.1623C93.154 23.3007 93.3471 23.4919 93.4892 23.7367C93.6313 23.9815 93.7031 24.2567 93.7031 24.5631C93.7031 24.8695 93.6321 25.1495 93.4892 25.3943C93.3471 25.6391 93.1532 25.8303 92.9074 25.9687C92.6615 26.1071 92.3917 26.1759 92.098 26.1759C91.8043 26.1759 91.5345 26.1071 91.2887 25.9687H91.2895ZM92.5977 25.4839C92.7413 25.3983 92.8539 25.2759 92.9345 25.1167C93.0151 24.9575 93.0558 24.7727 93.0558 24.5623C93.0558 24.3519 93.0151 24.1679 92.9345 24.0103C92.8539 23.8527 92.7413 23.7319 92.5977 23.6479C92.454 23.5639 92.2872 23.5215 92.0988 23.5215C91.9105 23.5215 91.7428 23.5639 91.5976 23.6479C91.4523 23.7319 91.339 23.8527 91.2584 24.0103C91.1778 24.1679 91.137 24.3519 91.137 24.5623C91.137 24.7727 91.1778 24.9575 91.2584 25.1167C91.339 25.2759 91.4523 25.3983 91.5976 25.4839C91.7428 25.5695 91.9097 25.6119 92.0988 25.6119C92.288 25.6119 92.454 25.5687 92.5977 25.4839Z" fill="#919191"/>
<path d="M97.7457 23.1937C97.9963 23.3225 98.1895 23.5065 98.3252 23.7457C98.4616 23.9849 98.5295 24.2617 98.5295 24.5769C98.5295 24.8921 98.4616 25.1681 98.3252 25.4033C98.1887 25.6393 97.9955 25.8217 97.7457 25.9505C97.4959 26.0793 97.2054 26.1441 96.8757 26.1441H95.7791V22.9993H96.8757C97.2054 22.9993 97.4951 23.0641 97.7457 23.1929V23.1937ZM97.618 25.3377C97.7976 25.1577 97.8878 24.9041 97.8878 24.5761C97.8878 24.2481 97.7976 23.9929 97.618 23.8081C97.4384 23.6233 97.1838 23.5313 96.8542 23.5313H96.4088V25.6081H96.8542C97.1838 25.6081 97.4384 25.5177 97.618 25.3377Z" fill="#919191"/>
<path d="M99.9015 23.5086V24.2974H100.957V24.7974H99.9015V25.631H101.092V26.1446H99.2717V22.9958H101.092V23.5094H99.9015V23.5086Z" fill="#919191"/>
<path d="M101.989 23.736C102.128 23.4912 102.318 23.3008 102.559 23.164C102.8 23.0272 103.071 22.9592 103.37 22.9592C103.721 22.9592 104.028 23.0496 104.291 23.2296C104.555 23.4096 104.739 23.6592 104.844 23.9776H104.121C104.049 23.8272 103.947 23.7144 103.817 23.6392C103.687 23.564 103.536 23.5264 103.365 23.5264C103.183 23.5264 103.02 23.5688 102.878 23.6544C102.736 23.74 102.625 23.8608 102.545 24.0168C102.465 24.1728 102.426 24.356 102.426 24.5664C102.426 24.7768 102.466 24.956 102.545 25.1136C102.624 25.2712 102.735 25.3928 102.878 25.4784C103.02 25.564 103.183 25.6064 103.365 25.6064C103.536 25.6064 103.687 25.568 103.817 25.4912C103.947 25.4144 104.049 25.3016 104.121 25.1512H104.844C104.74 25.4728 104.556 25.7224 104.294 25.9016C104.031 26.0808 103.724 26.1696 103.37 26.1696C103.07 26.1696 102.8 26.1016 102.559 25.9648C102.318 25.828 102.128 25.6384 101.989 25.3952C101.849 25.152 101.78 24.876 101.78 24.5664C101.78 24.2568 101.849 23.98 101.989 23.7352V23.736Z" fill="#919191"/>
<path d="M106.283 23V26.1448H105.655V23H106.283Z" fill="#919191"/>
<path d="M107.666 26.0631C107.49 25.9879 107.352 25.8799 107.25 25.7391C107.148 25.5983 107.095 25.4311 107.093 25.2391H107.767C107.776 25.3679 107.822 25.4703 107.904 25.5455C107.987 25.6207 108.1 25.6583 108.244 25.6583C108.387 25.6583 108.506 25.6231 108.59 25.5519C108.674 25.4815 108.716 25.3887 108.716 25.2751C108.716 25.1823 108.687 25.1055 108.631 25.0455C108.574 24.9855 108.502 24.9383 108.417 24.9031C108.332 24.8687 108.214 24.8303 108.064 24.7879C107.861 24.7279 107.695 24.6687 107.568 24.6095C107.44 24.5511 107.331 24.4623 107.24 24.3439C107.148 24.2255 107.102 24.0671 107.102 23.8687C107.102 23.6823 107.149 23.5207 107.241 23.3823C107.334 23.2439 107.465 23.1383 107.632 23.0647C107.8 22.9911 107.991 22.9543 108.208 22.9543C108.531 22.9543 108.794 23.0335 108.996 23.1911C109.198 23.3487 109.31 23.5687 109.331 23.8511H108.639C108.632 23.7431 108.587 23.6535 108.502 23.5831C108.416 23.5127 108.303 23.4775 108.162 23.4775C108.039 23.4775 107.941 23.5087 107.868 23.5719C107.794 23.6351 107.758 23.7263 107.758 23.8471C107.758 23.9311 107.786 24.0007 107.841 24.0567C107.896 24.1127 107.965 24.1575 108.047 24.1919C108.13 24.2263 108.246 24.2663 108.395 24.3111C108.599 24.3711 108.766 24.4311 108.894 24.4911C109.023 24.5511 109.134 24.6415 109.227 24.7615C109.32 24.8815 109.366 25.0391 109.366 25.2343C109.366 25.4023 109.323 25.5583 109.236 25.7031C109.149 25.8471 109.021 25.9623 108.853 26.0479C108.686 26.1335 108.486 26.1759 108.256 26.1759C108.037 26.1759 107.84 26.1383 107.665 26.0631H107.666Z" fill="#919191"/>
<path d="M110.81 23V26.1448H110.181V23H110.81Z" fill="#919191"/>
<path d="M112.347 25.9687C112.101 25.8303 111.907 25.6391 111.763 25.3943C111.619 25.1495 111.547 24.8727 111.547 24.5631C111.547 24.2535 111.619 23.9815 111.763 23.7367C111.907 23.4919 112.101 23.3007 112.347 23.1623C112.593 23.0239 112.863 22.9551 113.156 22.9551C113.45 22.9551 113.723 23.0239 113.967 23.1623C114.212 23.3007 114.405 23.4919 114.547 23.7367C114.689 23.9815 114.761 24.2567 114.761 24.5631C114.761 24.8695 114.69 25.1495 114.547 25.3943C114.405 25.6391 114.211 25.8303 113.965 25.9687C113.719 26.1071 113.449 26.1759 113.156 26.1759C112.862 26.1759 112.592 26.1071 112.346 25.9687H112.347ZM113.654 25.4839C113.798 25.3983 113.911 25.2759 113.991 25.1167C114.072 24.9575 114.113 24.7727 114.113 24.5623C114.113 24.3519 114.072 24.1679 113.991 24.0103C113.911 23.8527 113.798 23.7319 113.654 23.6479C113.511 23.5639 113.344 23.5215 113.156 23.5215C112.967 23.5215 112.8 23.5639 112.654 23.6479C112.509 23.7319 112.396 23.8527 112.315 24.0103C112.235 24.1679 112.194 24.3519 112.194 24.5623C112.194 24.7727 112.235 24.9575 112.315 25.1167C112.396 25.2759 112.509 25.3983 112.654 25.4839C112.8 25.5695 112.966 25.6119 113.156 25.6119C113.345 25.6119 113.511 25.5687 113.654 25.4839Z" fill="#919191"/>
<path d="M118.181 26.1439H117.552L116.127 23.9863V26.1439H115.498V22.9951H116.127L117.552 25.1575V22.9951H118.181V26.1439Z" fill="#919191"/>
<path d="M71.0227 14.6518H68.8381L69.9228 11.343L71.0227 14.6518Z" fill="#919191"/>
<path d="M69.9229 11.3431L68.8382 14.6527H71.0227L69.9229 11.3431ZM69.9229 11.3431L68.8382 14.6527H71.0227L69.9229 11.3431ZM69.9229 11.3431L68.8382 14.6527H71.0227L69.9229 11.3431ZM69.9229 11.3431L68.8382 14.6527H71.0227L69.9229 11.3431ZM80.504 8.25189C80.1552 6.67509 78.8741 5.46629 77.2802 5.22949C75.7478 5.00229 74.0078 4.84229 72.0922 4.84229C70.6244 4.84229 68.8757 4.93589 66.9178 5.22789C65.3071 5.46709 64.0213 6.69028 63.6709 8.28468C63.3541 9.73028 63.1162 11.4607 63.1162 13.4135C63.1162 14.6967 63.22 16.4415 63.6542 18.4503C64.0069 20.0935 65.3925 21.3143 67.0599 21.4951C68.5923 21.6639 70.278 21.7679 72.093 21.7679C73.5896 21.7679 75.2825 21.6943 77.123 21.4951C78.8039 21.3127 80.1815 20.0719 80.5407 18.4159C80.844 16.9975 81.0683 15.3095 81.0683 13.4135C81.0683 12.0991 80.9613 10.3143 80.5048 8.25269L80.504 8.25189ZM72.2846 18.5039L71.7331 16.8351H68.1126L67.5627 18.5039H64.5792L68.3018 8.26869H71.5742L75.2833 18.5039H72.2846ZM78.4096 18.5039H75.569V8.26869H78.4096V18.5039ZM68.8382 14.6519H71.0227L69.9229 11.3423L68.8382 14.6519ZM69.9229 11.3431L68.8382 14.6527H71.0227L69.9229 11.3431ZM69.9229 11.3431L68.8382 14.6527H71.0227L69.9229 11.3431ZM69.9229 11.3431L68.8382 14.6527H71.0227L69.9229 11.3431Z" fill="#919191"/>
<path d="M18.2625 2.28149C18.0023 6.35349 16.9599 11.2111 13.9492 15.1159C10.4876 19.6047 6.15367 21.8471 2.87406 22.9671C2.86528 22.9703 2.8557 22.9743 2.84692 22.9775V2.28149H18.2625Z" fill="#919191"/>
<path d="M23.3523 18.4822V29.7598H2.84692V24.5014C2.8557 24.503 2.86528 24.5046 2.87406 24.5046C5.52553 24.8918 8.59841 24.9006 11.9754 24.1414C16.7787 23.0614 20.542 20.7998 23.3076 18.5174C23.3227 18.5054 23.3363 18.4934 23.3515 18.4814L23.3523 18.4822Z" fill="#919191"/>
</svg>
