<svg width="16" height="21" viewBox="0 0 16 21" fill="none" xmlns="http://www.w3.org/2000/svg">
  <path d="M5.66667 15.25H10.3333M2.94445 20H13.0556C14.1294 20 15 19.1139 15 18.0208V2.97917C15 1.8861 14.1294 1 13.0556 1H2.94444C1.87056 1 1 1.8861 1 2.97917V18.0208C1 19.1139 1.87056 20 2.94445 20ZM10.3333 6.9375C10.3333 8.24918 9.28866 9.3125 8 9.3125C6.71133 9.3125 5.66667 8.24918 5.66667 6.9375C5.66667 5.62582 6.71133 4.5625 8 4.5625C9.28866 4.5625 10.3333 5.62582 10.3333 6.9375Z" stroke="#1E1E1E" stroke-width="2" stroke-linecap="round" stroke-linejoin="round"/>
</svg>
