<svg width="17" height="15" viewBox="0 0 17 15" fill="none" xmlns="http://www.w3.org/2000/svg">
  <path d="M0.5 10V7.67073C0.5 6.53922 1.39543 5.62195 2.5 5.62195M0.5 10C0.5 11.1315 1.39543 12.0488 2.5 12.0488H14.5C15.6046 12.0488 16.5 11.1315 16.5 10M0.5 10V13.1341C0.5 13.8885 1.09695 14.5 1.83333 14.5H3.16667C3.90305 14.5 4.5 13.8885 4.5 13.1341V12.0488M16.5 10V7.67073C16.5 6.53922 15.6046 5.62195 14.5 5.62195H2.5M16.5 10V13.1341C16.5 13.8885 15.903 14.5 15.1667 14.5H13.8333C13.097 14.5 12.5 13.8885 12.5 13.1341V12.0488M2.5 5.62195L3.56939 1.51392C3.72504 0.916017 4.25364 0.5 4.8577 0.5H12.2057C12.7796 0.5 13.2891 0.876197 13.4706 1.43393L14.8333 5.62195M2.83333 8.69512H5.16667M11.8333 8.69512H14.1667" stroke="white" stroke-linecap="round" stroke-linejoin="round"/>
</svg>
